<svg xmlns="http://www.w3.org/2000/svg" fill-rule="evenodd" clip-rule="evenodd" image-rendering="optimizeQuality" shape-rendering="geometricPrecision" text-rendering="geometricPrecision" viewBox="0 0 512 512"><defs/><path fill="#011f4b" d="M0 0h512v512H0z"/><path fill="#b3cde0" fill-rule="nonzero" d="M92.42272 348.59152a9.3261188 9.4613326 0 0111.40785 14.97088l-46.887275 36.94933-.418634 49.79682 57.562499-3.29154 31.29306-50.43373c2.72113-4.35327 8.47737-5.73359 12.7684-2.97296 4.29102 2.76055 5.65159 8.6003 2.93045 12.95349l-33.59556 54.25618a9.4193175 9.5558819 0 01-7.53544 4.67186l-72.214772 4.14086h-.523302C42.081708 469.63271 38 465.3856 38 460.18292l.523294-63.59964c-.209313-3.07912 1.046596-6.15833 3.558414-8.17564l50.341012-39.70996zm87.59965-116.05093c23.33897-70.92587 54.84135-121.14735 99.21682-152.787916 46.04998-32.914725 105.18236-45.33739 182.6301-39.6038 5.33761.42466 9.41932 4.8841 9.52398 10.192944 7.53545 85.153512-8.79137 145.461692-43.53819 191.223732-33.38624 43.95707-83.51794 73.79267-145.68544 98.74416v83.13612c0 4.03478-2.3025 7.64482-5.65159 9.34354l-63.31874 39.71005a10.361249 10.511471 0 01-15.59422-7.53857C183.58078 356.23616 168.7192 351.03348 81.014887 320.2424l-29.40921-10.40536a10.25659 10.405295 0 01-4.604994-16.35111l41.75897-60.41451c2.093185-3.07904 5.442278-4.56552 8.896024-4.45927l82.262043 4.03461zm179.28101-80.05708a31.193205 31.645456 0 10-44.06147 44.80648 31.193205 31.645456 0 0044.06147-44.80648z"/></svg>